<svg height="1919.7333" viewBox="0 0 6412.3066 1919.7333" width="6412.3066" xmlns="http://www.w3.org/2000/svg" xmlns:xlink="http://www.w3.org/1999/xlink"><clipPath id="a"><path d="m1868.239 1439.801c-35.698-.031-82.189-11.794-120.548-60.859-52.283-66.872-44.38-73.559-124.296-126.061s111.033-18.515 171.218 78.147c60.186 96.661 129.986 98.98 129.986 98.98s-23.494 9.758-56.041 9.793z"/></clipPath><linearGradient id="b" gradientTransform="matrix(301.20374 0 0 -301.20374 1623.395 1345.6311)" gradientUnits="userSpaceOnUse" spreadMethod="pad" x1="0" x2="1" y1="0" y2="0"><stop offset="0" stop-color="#f6eb5e"/><stop offset="1" stop-color="#f8c721"/></linearGradient><clipPath id="c"><path d="m1748.298 1359.488c-40.411-55.725-41.947-60.793-108.819-102.131s92.406 0 140.432 77.815c51.012 82.651 107.604 93.013 107.604 93.013s-3.786.508-10.304.508c-23.717 0-83.609-6.733-128.913-69.205"/></clipPath><linearGradient id="d" gradientTransform="matrix(254.02196 162.08633 162.08633 -254.02196 1652.7844 1274.6074)" gradientUnits="userSpaceOnUse" spreadMethod="pad" x1="0" x2="1" y1="0" y2="0"><stop offset="0" stop-color="#f7ea4e"/><stop offset=".242458" stop-color="#f7ea46"/><stop offset=".653736" stop-color="#f7ea46"/><stop offset=".940053" stop-color="#f8c721"/><stop offset="1" stop-color="#f8c721"/></linearGradient><clipPath id="e"><path d="m1820.593 1400.82c.032.01.049.01.049.01s-.016 0-.049-.01m-68.648-57.745c-28.572-41.34-30.755-40.774-77.206-75.992s61.44 15.867 96.053 74.168c33.028 55.633 48.819 59.385 49.801 59.569-1.409-.247-33.082-6.289-68.648-57.745"/></clipPath><linearGradient id="f" gradientTransform="matrix(145.90378 0 0 -145.90378 1674.7385 1333.9557)" gradientUnits="userSpaceOnUse" spreadMethod="pad" x1="0" x2="1" y1="0" y2="0"><stop offset="0" stop-color="#f4e83f"/><stop offset=".126934" stop-color="#f4e83f"/><stop offset=".394686" stop-color="#f7f19f"/><stop offset=".395711" stop-color="#f7f09a"/><stop offset=".684135" stop-color="#faf5bb"/><stop offset=".945216" stop-color="#f7ea46"/><stop offset="1" stop-color="#f7ea46"/></linearGradient><linearGradient id="g" gradientTransform="matrix(860.98108 169.56853 169.56853 -860.98108 1647.6389 1126.1357)" gradientUnits="userSpaceOnUse" spreadMethod="pad" x1="0" x2="1" y1="0" y2="0"><stop offset="0" stop-color="#f6e93f"/><stop offset=".394937" stop-color="#f8ca18"/><stop offset=".776377" stop-color="#e74927"/><stop offset="1" stop-color="#c02f2a"/></linearGradient><linearGradient id="h" gradientTransform="matrix(810.06989 0 0 -810.06989 1654.8422 1195.7229)" gradientUnits="userSpaceOnUse" spreadMethod="pad" x1="0" x2="1" y1="0" y2="0"><stop offset="0" stop-color="#f9ec60"/><stop offset=".288405" stop-color="#f4e83f"/><stop offset=".695351" stop-color="#f9b01d"/><stop offset=".81368" stop-color="#ef8a24"/><stop offset=".97078" stop-color="#d0282a"/><stop offset="1" stop-color="#d0282a"/></linearGradient><linearGradient id="i" gradientTransform="matrix(610.86871 118.94531 118.94531 -610.86871 1703.5983 1128.413)" gradientUnits="userSpaceOnUse" spreadMethod="pad" x1="0" x2="1" y1="0" y2="0"><stop offset="0" stop-color="#f9ec60"/><stop offset=".351388" stop-color="#f9f4b5"/><stop offset=".699335" stop-color="#f9ec60"/><stop offset="1" stop-color="#f08321"/></linearGradient><clipPath id="j"><path d="m0 1439.801h4809.233v-1439.801h-4809.233z"/></clipPath><linearGradient id="k" gradientTransform="matrix(512.59393 208.08199 208.08199 -512.59393 1656.5482 1206.9635)" gradientUnits="userSpaceOnUse" spreadMethod="pad" x1="0" x2="1" y1="0" y2="0"><stop offset="0" stop-color="#f4e83f"/><stop offset=".175627" stop-color="#f6e130"/><stop offset="1" stop-color="#ef8a24"/></linearGradient><linearGradient id="l" gradientTransform="matrix(501.54422 0 0 -501.54422 1656.5006 1303.793)" gradientUnits="userSpaceOnUse" spreadMethod="pad" x1="0" x2="1" y1="0" y2="0"><stop offset="0" stop-color="#f4e83f"/><stop offset=".00019338" stop-color="#f4e83f"/><stop offset=".116221" stop-color="#f4e83f"/><stop offset=".268526" stop-color="#f6ee8c"/><stop offset=".570525" stop-color="#fbd50f"/><stop offset="1" stop-color="#ef8a24"/></linearGradient><linearGradient id="m" gradientTransform="matrix(402.79117 230.20638 230.20638 -402.79117 1716.8589 1197.2815)" gradientUnits="userSpaceOnUse" spreadMethod="pad" x1="0" x2="1" y1="0" y2="0"><stop offset="0" stop-color="#f4e83f"/><stop offset=".0882967" stop-color="#f7ed78"/><stop offset=".329904" stop-color="#faf5bb"/><stop offset=".465791" stop-color="#faf3ab"/><stop offset=".696898" stop-color="#fbd50f"/><stop offset=".940053" stop-color="#ef8a24"/><stop offset="1" stop-color="#ef8a24"/></linearGradient><linearGradient id="n" gradientTransform="matrix(510.18481 162.42668 162.42668 -510.18481 1936.4523 1027.8645)" gradientUnits="userSpaceOnUse" spreadMethod="pad" x1="0" x2="1" y1="0" y2="0"><stop offset="0" stop-color="#f8c51a"/><stop offset=".230411" stop-color="#f8ca18"/><stop offset=".784112" stop-color="#ee7622"/><stop offset="1" stop-color="#e34329"/></linearGradient><linearGradient id="o" gradientTransform="matrix(413.85007 0 0 -413.85007 1959.4028 1098.24)" gradientUnits="userSpaceOnUse" spreadMethod="pad" x1="0" x2="1" y1="0" y2="0"><stop offset="0" stop-color="#f8c51a"/><stop offset=".173151" stop-color="#f8e22f"/><stop offset=".392888" stop-color="#f8e22f"/><stop offset=".68984" stop-color="#fbbf19"/><stop offset=".826327" stop-color="#f28f1f"/><stop offset="1" stop-color="#ec6322"/></linearGradient><linearGradient id="p" gradientTransform="matrix(244.38882 0 0 -244.38882 2012.7489 1091.1769)" gradientUnits="userSpaceOnUse" spreadMethod="pad" x1="0" x2="1" y1="0" y2="0"><stop offset="0" stop-color="#f8e22f"/><stop offset=".27599" stop-color="#faee75"/><stop offset=".727645" stop-color="#faec5d"/><stop offset="1" stop-color="#fbb91c"/></linearGradient><g transform="matrix(1.3333333 0 0 -1.3333333 0 1919.7333)"><g clip-path="url(#a)"><path d="m1868.239 1439.801c-35.698-.031-82.189-11.794-120.548-60.859-52.283-66.872-44.38-73.559-124.296-126.061s111.033-18.515 171.218 78.147c60.186 96.661 129.986 98.98 129.986 98.98s-23.494 9.758-56.041 9.793z" fill="url(#b)"/></g><g clip-path="url(#c)"><path d="m1748.298 1359.488c-40.411-55.725-41.947-60.793-108.819-102.131s92.406 0 140.432 77.815c51.012 82.651 107.604 93.013 107.604 93.013s-3.786.508-10.304.508c-23.717 0-83.609-6.733-128.913-69.205" fill="url(#d)"/></g><g clip-path="url(#e)"><path d="m1820.593 1400.82c.032.01.049.01.049.01s-.016 0-.049-.01m-68.648-57.745c-28.572-41.34-30.755-40.774-77.206-75.992s61.44 15.867 96.053 74.168c33.028 55.633 48.819 59.385 49.801 59.569-1.409-.247-33.082-6.289-68.648-57.745" fill="url(#f)"/></g><path d="m2162.77 1341.39s-45.291-7.6-65.353-18.543c-16.855-9.193-53.939-17.744-131.314-87.542-92.71-83.631-165.358-150.159-332.539-89.973s124.626-180.557 339.834-44.38c215.208 136.177 258.98 173.869 538.02 128.274s-96.9 116.132-286.854 116.132c-19.608 0-40.207-1.238-61.794-3.968" fill="url(#g)"/><path d="m2139.502 1319.061c-10.334-3.039-57.283-16.883-84.64-36.337-30.605-21.763-47.786-32.015-97.27-74.168-82.071-69.912-145.894-123.486-302.75-78.424s119.763-128.273 284.817-35.259c15.633 8.81 82.191 53.612 99.397 64.744 139.52 90.278 207.913 118.548 425.856 90.278s-89.328 80.508-232.027 80.51c-29.022 0-60.248-3.33-93.383-11.344" fill="url(#h)"/><path d="m1960.632 1185.15c-63.456-54.908-138.608-104.259-257.156-79.943s111.86-65.656 232.231 10.944c4.872 3.099 65.048 43.163 115.507 80.854 64.389 48.099 161.406 92.387 248.645 89.367s-28.312 12.39-76.225 12.391c-61.496 0-155.288-20.405-263.002-113.613" fill="url(#i)"/><g clip-path="url(#j)" fill="#fff"><path d="m0 0h276.06v-82.356c46.396 66.116 106.709 100.915 182.105 100.915 6.96 0 13.921 0 20.877-1.162v-284.177c-30.156 16.243-56.833 25.519-80.033 25.519-71.915 0-113.67-40.594-113.67-112.513v-231.978h-285.339z" transform="translate(3.7723 882.8247)"/><path d="m0 0c-3.48 46.396-23.196 67.277-63.794 67.277-35.959 0-59.156-22.038-64.955-67.277zm-131.068-127.587v-9.276c0-59.16 20.878-88.155 64.955-88.155 25.516 0 45.235 15.075 57.995 45.232l263.3-17.398c-42.916-122.949-160.067-198.338-325.936-198.338-199.503 0-342.172 141.501-342.172 313.173 0 171.662 141.508 313.173 342.172 313.173s344.494-134.551 344.494-327.093c0-10.437 0-20.881-1.161-31.318z" transform="translate(875.355 670.559)"/><path d="m0 0h-76.553v215.746h76.553v190.409c0 162.389 90.474 251.701 251.698 251.701 42.92 0 84.675-4.641 127.591-13.92v-220.381c-15.078 2.319-27.838 4.638-40.597 4.638-42.916 0-54.515-24.357-54.515-70.754v-141.693h95.112v-215.746h-95.112v-370.006h-284.177z" transform="translate(1214.5485 667.0788)"/><path d="m1623.737 882.825h284.177v-585.752h-284.177z"/><path d="m0 0h276.06v-81.195c48.715 67.274 106.713 99.754 182.108 99.754 122.95 0 202.983-78.876 202.983-211.105v-393.206h-284.177v295.775c0 51.035-6.961 76.554-40.601 76.554-33.633 0-51.038-25.519-51.038-76.554v-295.775h-285.335z" transform="translate(1941.5437 882.8247)"/><path d="m0 0c-3.484 46.396-23.204 67.277-63.797 67.277-35.956 0-59.152-22.038-64.959-67.277zm-131.071-127.587v-9.276c0-59.16 20.874-88.155 64.951-88.155 25.519 0 45.239 15.075 57.998 45.232l263.297-17.398c-42.916-122.949-160.067-198.338-325.933-198.338-199.506 0-342.175 141.501-342.175 313.173 0 171.662 141.515 313.173 342.175 313.173 200.668 0 344.491-134.551 344.491-327.093 0-10.437 0-20.881-1.154-31.318z" transform="translate(3006.6187 670.559)"/><path d="m0 0h276.056v-82.356c46.4 66.116 106.714 83.056 182.109 83.056 6.96 0 13.921 0 20.881-1.161v-266.319c-30.157 16.243-56.837 25.519-80.033 25.519-71.919 0-113.674-40.594-113.674-112.513v-231.978h-285.339z" transform="translate(3277.5925 882.8247)"/><path d="m0 0h312.012l44.077-149.63c11.598-40.597 28.995-93.954 38.279-164.704 20.874 90.47 35.955 147.307 41.755 168.184l42.916 146.15h292.299l-357.251-824.691h-302.736l142.662 289.977z" transform="translate(3742.1528 882.8247)"/><path d="m0 0c-3.754 18.772-16.756 29.751-36.975 29.751-35.532 0-46.506-28.02-46.506-58.348 0-27.442 12.421-54.6 43.618-54.6 23.687 0 37.84 13.864 41.017 36.398h25.131c-5.486-36.398-28.308-58.062-65.86-58.062-45.641 0-69.906 31.774-69.906 76.264 0 44.769 23.111 80.012 70.483 80.012 33.797 0 60.951-15.887 64.417-51.415z" transform="translate(109.4813 162.0544)"/><path d="m0 0c25.708 0 46.507 20.219 46.507 56.331 0 36.398-20.799 56.616-46.507 56.616s-46.507-20.218-46.507-56.616c0-36.112 20.799-56.331 46.507-56.331m0 134.612c47.372 0 72.503-34.374 72.503-78.281 0-43.621-25.131-77.996-72.503-77.996s-72.507 34.375-72.507 77.996c0 43.907 25.135 78.281 72.507 78.281" transform="translate(227.6362 78.8579)"/><path d="m0 0h23.107v-23.681h.581c10.398 18.487 27.154 27.15 48.527 27.15 39.286 0 51.418-22.533 51.418-54.592v-98.215h-24.553v101.1c0 18.202-11.556 30.043-30.331 30.043-29.751 0-44.195-19.934-44.195-46.799v-84.344h-24.554z" transform="translate(329.0387 210.0003)"/><path d="m0 0h29.754v-21.665h-29.754v-92.721c0-11.264 3.177-13.287 18.487-13.287h11.267v-21.665h-18.776c-25.422 0-35.532 5.201-35.532 32.643v95.03h-25.419v21.665h25.419v44.776h24.554z" transform="translate(523.7468 210.0003)"/><path d="m0 0c-1.158 23.396-18.776 42.175-43.041 42.175-25.711 0-41.021-19.356-42.752-42.175zm23.684-41.598c-6.643-32.928-30.331-50.839-63.836-50.839-47.665 0-70.195 32.936-71.641 78.573 0 44.776 29.466 77.704 70.195 77.704 52.861 0 69.04-49.392 67.594-85.505h-111.789c-.866-25.996 13.863-49.107 46.507-49.107 20.218 0 34.374 9.824 38.705 29.174z" transform="translate(684.3621 149.6298)"/><path d="m0 0h23.107v-23.681h.581c10.398 18.487 27.154 27.15 48.527 27.15 39.286 0 51.419-22.533 51.419-54.592v-98.215h-24.554v101.1c0 18.202-11.556 30.043-30.331 30.043-29.751 0-44.195-19.934-44.195-46.799v-84.344h-24.554z" transform="translate(735.7881 210.0003)"/><path d="m0 0h29.754v-21.665h-29.754v-92.721c0-11.264 3.177-13.287 18.487-13.287h11.267v-21.665h-18.776c-25.422 0-35.532 5.201-35.532 32.643v95.03h-25.419v21.665h25.419v44.776h24.554z" transform="translate(930.4963 210.0003)"/><path d="m0 0h23.107v-21.95h.581c10.975 16.756 27.731 25.419 48.238 25.419 18.199 0 34.955-7.223 41.021-25.419 10.109 15.887 27.731 25.419 46.796 25.419 29.75 0 49.684-12.417 49.684-43.329v-109.478h-24.554v97.923c0 18.487-4.912 33.22-28.885 33.22-23.688 0-38.998-15.018-38.998-38.129v-93.014h-24.553v97.923c0 19.356-6.067 33.22-28.02 33.22-29.177 0-39.863-26.866-39.863-38.129v-93.014h-24.554z" transform="translate(1067.7192 210.0003)"/><path d="m0 0c-9.532-6.932-28.02-7.224-44.484-10.109-16.179-2.893-30.042-8.67-30.042-26.866 0-16.179 13.863-21.956 28.885-21.956 32.354 0 45.641 20.218 45.641 33.797zm39.864-76.55c-4.332-2.6-9.821-4.046-17.622-4.046-12.71 0-20.799 6.932-20.799 23.111-13.576-15.887-31.774-23.111-52.573-23.111-27.151 0-49.396 12.132-49.396 41.883 0 33.797 25.134 41.021 50.553 45.93 27.154 5.2 50.262 3.469 50.262 21.957 0 21.372-17.622 24.842-33.221 24.842-20.795 0-36.105-6.355-37.263-28.312h-24.553c1.446 36.975 30.042 49.976 63.263 49.976 26.861 0 56.039-6.062 56.039-41.021v-76.834c0-11.556 0-16.756 7.797-16.756 2.023 0 4.335.292 7.513 1.446z" transform="translate(1406.5786 137.7893)"/><path d="m0 0h23.111v-23.681h.577c10.398 18.487 27.15 27.15 48.527 27.15 39.286 0 51.419-22.533 51.419-54.592v-98.215h-24.554v101.1c0 18.202-11.555 30.043-30.331 30.043-29.751 0-44.195-19.934-44.195-46.799v-84.344h-24.554z" transform="translate(1469.2716 210.0003)"/><path d="m0 0c-9.532-6.932-28.019-7.224-44.484-10.109-16.179-2.893-30.042-8.67-30.042-26.866 0-16.179 13.863-21.956 28.885-21.956 32.354 0 45.641 20.218 45.641 33.797zm39.864-76.55c-4.332-2.6-9.821-4.046-17.622-4.046-12.71 0-20.799 6.932-20.799 23.111-13.575-15.887-31.774-23.111-52.573-23.111-27.151 0-49.396 12.132-49.396 41.883 0 33.797 25.134 41.021 50.553 45.93 27.154 5.2 50.262 3.469 50.262 21.957 0 21.372-17.622 24.842-33.221 24.842-20.795 0-36.105-6.355-37.263-28.312h-24.553c1.446 36.975 30.042 49.976 63.263 49.976 26.861 0 56.039-6.062 56.039-41.021v-76.834c0-11.556 0-16.756 7.797-16.756 2.023 0 4.335.292 7.513 1.446z" transform="translate(1722.3306 137.7893)"/><path d="m0 0c0 26.288-11.555 53.439-42.464 53.439-31.485 0-44.195-25.712-44.195-54.308 0-26.866 9.821-56.908 42.175-56.908 32.351 0 44.484 29.757 44.484 57.777m24.265-64.994c0-48.53-22.242-73.372-69.329-73.372-28.02 0-60.371 11.263-61.817 43.906h24.554c1.157-17.91 22.534-24.265 38.709-24.265 32.063 0 44.772 23.111 44.772 56.616v9.824h-.577c-8.086-18.202-27.731-27.157-46.507-27.157-44.483 0-66.729 34.958-66.729 75.688 0 35.236 17.334 78.857 69.041 78.857 18.776 0 35.528-8.378 44.484-24.842h-.289.577v21.373h23.111z" transform="translate(1889.5928 138.3664)"/><path d="m0 0c-1.158 23.396-18.776 42.175-43.041 42.175-25.711 0-41.021-19.356-42.752-42.175zm23.685-41.598c-6.644-32.928-30.332-50.839-63.837-50.839-47.665 0-70.195 32.936-71.641 78.573 0 44.776 29.466 77.704 70.195 77.704 52.861 0 69.04-49.392 67.594-85.505h-111.789c-.866-25.996 13.863-49.107 46.507-49.107 20.218 0 34.374 9.824 38.705 29.174z" transform="translate(2054.5466 149.6298)"/><path d="m0 0h23.107v-21.95h.581c10.975 16.756 27.731 25.419 48.238 25.419 18.199 0 34.955-7.223 41.021-25.419 10.11 15.887 27.731 25.419 46.796 25.419 29.75 0 49.684-12.417 49.684-43.329v-109.478h-24.55v97.923c0 18.487-4.916 33.22-28.889 33.22-23.688 0-38.998-15.018-38.998-38.129v-93.014h-24.553v97.923c0 19.356-6.067 33.22-28.02 33.22-29.177 0-39.863-26.866-39.863-38.129v-93.014h-24.554z" transform="translate(2105.9727 210.0003)"/><path d="m0 0c-1.154 23.396-18.772 42.175-43.037 42.175-25.712 0-41.022-19.356-42.753-42.175zm23.688-41.598c-6.64-32.928-30.328-50.839-63.84-50.839-47.661 0-70.195 32.936-71.634 78.573 0 44.776 29.459 77.704 70.195 77.704 52.862 0 69.033-49.392 67.594-85.505h-111.793c-.869-25.996 13.864-49.107 46.507-49.107 20.219 0 34.375 9.824 38.706 29.174z" transform="translate(2456.0955 149.6298)"/><path d="m0 0h23.111v-23.681h.577c10.401 18.487 27.15 27.15 48.53 27.15 39.283 0 51.416-22.533 51.416-54.592v-98.215h-24.551v101.1c0 18.202-11.555 30.043-30.334 30.043-29.751 0-44.199-19.934-44.199-46.799v-84.344h-24.55z" transform="translate(2507.5251 210.0003)"/><path d="m0 0h29.751v-21.665h-29.751v-92.721c0-11.264 3.177-13.287 18.487-13.287h11.264v-21.665h-18.78c-25.419 0-35.528 5.201-35.528 32.643v95.03h-25.419v21.665h25.419v44.776h24.557z" transform="translate(2702.2368 210.0003)"/><path d="m0 0c.869-21.957 19.934-28.889 40.152-28.889 15.31 0 36.113 3.47 36.113 22.242 0 19.064-24.265 22.242-48.823 27.735-24.265 5.485-48.815 13.578-48.815 42.175 0 30.043 29.751 42.46 55.754 42.46 32.929 0 59.217-10.401 61.233-46.799h-24.55c-1.731 19.072-18.487 25.135-34.667 25.135-14.732 0-31.773-4.047-31.773-19.065 0-17.618 25.996-20.51 48.822-25.996 24.55-5.493 48.815-13.579 48.815-42.467 0-35.529-33.22-47.084-63.548-47.084-33.512 0-61.817 13.578-63.263 50.553z" transform="translate(2854.4741 107.7466)"/><path d="m0 0c-11.263-29.174-21.373-39.86-43.329-39.86-5.778 0-11.556.577-17.041 2.593v22.534c4.616-1.446 9.532-3.462 14.44-3.462 10.11 0 15.602 4.908 20.219 13.571l10.109 25.42-59.216 148.475h27.734l43.615-122.187h.584l41.883 122.187h25.996z" transform="translate(3042.5388 40.7291)"/><path d="m0 0c.869-21.957 19.934-28.889 40.152-28.889 15.31 0 36.113 3.47 36.113 22.242 0 19.064-24.265 22.242-48.822 27.735-24.266 5.485-48.816 13.578-48.816 42.175 0 30.043 29.751 42.46 55.755 42.46 32.928 0 59.216-10.401 61.232-46.799h-24.55c-1.731 19.072-18.487 25.135-34.666 25.135-14.733 0-31.774-4.047-31.774-19.065 0-17.618 25.996-20.51 48.822-25.996 24.55-5.493 48.815-13.579 48.815-42.467 0-35.529-33.22-47.084-63.548-47.084-33.512 0-61.817 13.578-63.263 50.553z" transform="translate(3143.3606 107.7466)"/><path d="m0 0h29.751v-21.665h-29.751v-92.721c0-11.264 3.177-13.287 18.487-13.287h11.264v-21.665h-18.78c-25.419 0-35.528 5.201-35.528 32.643v95.03h-25.419v21.665h25.419v44.776h24.557z" transform="translate(3306.8755 210.0003)"/><path d="m0 0c-1.154 23.396-18.772 42.175-43.037 42.175-25.712 0-41.022-19.356-42.753-42.175zm23.688-41.598c-6.64-32.928-30.328-50.839-63.84-50.839-47.661 0-70.195 32.936-71.634 78.573 0 44.776 29.459 77.704 70.195 77.704 52.862 0 69.033-49.392 67.594-85.505h-111.793c-.869-25.996 13.864-49.107 46.507-49.107 20.219 0 34.374 9.824 38.706 29.174z" transform="translate(3467.4836 149.6298)"/><path d="m0 0h23.111v-21.95h.577c10.978 16.756 27.727 25.419 48.238 25.419 18.202 0 34.951-7.223 41.021-25.419 10.109 15.887 27.728 25.419 46.792 25.419 29.758 0 49.684-12.417 49.684-43.329v-109.478h-24.55v97.923c0 18.487-4.908 33.22-28.889 33.22-23.688 0-38.997-15.018-38.997-38.129v-93.014h-24.55v97.923c0 19.356-6.063 33.22-28.02 33.22-29.174 0-39.867-26.866-39.867-38.129v-93.014h-24.55z" transform="translate(3518.9133 210.0003)"/></g><path d="m1910.009 1385.63c-124.019-95.445-109.428-152.591-268.098-180.556s179.948-70.521 286.943 53.498c106.996 124.019 266.275 120.37 266.275 120.37s-74.837 47.437-161.755 47.441c-40.618.001-83.868-10.356-123.365-40.753" fill="url(#k)"/><path d="m1911.224 1369.216c-107.769-82.941-106.995-147.119-254.724-164.915s166.981-40.788 263.843 71.901c93.014 108.212 237.702 108.212 237.702 108.212s-53.506 26.06-119.849 26.064c-40.62 0-86.045-9.764-126.972-41.262" fill="url(#l)"/><path d="m1857.726 1287.753c-62.617-70.521-156.239-83.895-156.239-83.895 138.609-5.471 196.363 78.423 196.363 78.423 6.432 7.522 26.578 29.315 32.22 34.652 67.481 63.834 142.257 71.736 142.257 71.736-103.35 0-156.576-35.568-214.601-100.916" fill="url(#m)"/><path d="m2183.578 1164.038c-113.075-67.48-134.961-118.546-252.596-138.608s144.992-59.274 262.627 41.035c117.635 100.309 220.679 94.838 220.679 94.838s-53.67 32.032-123.347 32.034c-33.484.001-70.66-7.395-107.363-29.299" fill="url(#n)"/><path d="m2175.675 1143.065c-98.553-64.633-111.843-96.44-216.273-118.843s118.841-35.741 224.176 53.794c109.428 93.014 189.675 88.15 189.675 88.15s-31.323 13.135-76.263 13.136c-34.971 0-78.187-7.953-121.315-36.237" fill="url(#o)"/><path d="m2136.159 1095.039c-46.202-38.909-106.388-60.794-123.41-66.266s56.537-6.686 120.371 32.829c63.832 39.515 35.867 32.828 124.017 92.405s-60.43-7.98-120.978-58.968" fill="url(#p)"/></g></svg>